name rise37.2698peak67.6939fall79.5734.mot
datacolumns 19
datarows 20
range 13.98661800000000 14.01828000000000
endheader
time	ground_force1_vx	ground_force1_vy	ground_force1_vz	ground_force1_px	ground_force1_py	ground_force1_pz	ground_force2_vx	ground_force2_vy	ground_force2_vz	ground_force2_px	ground_force2_py	ground_force2_pz	ground_torque1_x	ground_torque1_y	ground_torque1_z	ground_torque2_x	ground_torque2_y	ground_torque2_z	
13.98661800000000	-6.85656200000000	40.42194100000000	-10.79941400000000	0.29656700000000	0.00000000000000	0.07751700000000	-66.95236400000000	779.41637000000003	-48.05911300000000	0.09322000000000	0.00000000000000	-0.08261400000000	0.00000000000000	-6.76003200000000	0.00000000000000	0.00000000000000	-18.16245400000000	0.00000000000000	
13.98828600000000	-7.45940300000000	47.44734100000000	-12.18875400000000	0.30251300000000	0.00000000000000	0.07855700000000	-67.73972800000000	776.60136199999999	-47.62854100000000	0.09224100000000	0.00000000000000	-0.08246900000000	0.00000000000000	-7.74707200000000	0.00000000000000	0.00000000000000	-18.14466800000000	0.00000000000000	
13.98994600000000	-7.91464500000000	54.58204200000000	-13.46707000000000	0.30799200000000	0.00000000000000	0.07950200000000	-68.53665400000000	773.67334700000004	-47.17821100000000	0.09126500000000	0.00000000000000	-0.08232000000000	0.00000000000000	-8.68781000000000	0.00000000000000	0.00000000000000	-18.12830700000000	0.00000000000000	
13.99163000000000	-8.20280900000000	61.73671400000000	-14.60573000000000	0.31307800000000	0.00000000000000	0.08036500000000	-69.34201299999999	770.62906199999998	-46.70795800000000	0.09029300000000	0.00000000000000	-0.08216800000000	0.00000000000000	-9.56200200000000	0.00000000000000	0.00000000000000	-18.11322800000000	0.00000000000000	
13.99327900000000	-8.31244200000000	68.84373600000001	-15.58535700000000	0.31782600000000	0.00000000000000	0.08115900000000	-70.15457300000000	767.46519599999999	-46.21764300000000	0.08932500000000	0.00000000000000	-0.08201200000000	0.00000000000000	-10.35479300000000	0.00000000000000	0.00000000000000	-18.09927200000000	0.00000000000000	
13.99494900000000	-8.23995400000000	75.85934300000000	-16.39600100000000	0.32228400000000	0.00000000000000	0.08189400000000	-70.97299800000000	764.17839500000002	-45.70715100000000	0.08836400000000	0.00000000000000	-0.08185300000000	0.00000000000000	-11.05706200000000	0.00000000000000	0.00000000000000	-18.08626100000000	0.00000000000000	
13.99664600000000	-7.98885600000000	82.76345600000001	-17.03652000000000	0.32648800000000	0.00000000000000	0.08257800000000	-71.79585400000001	760.76527499999997	-45.17639900000000	0.08740900000000	0.00000000000000	-0.08169000000000	0.00000000000000	-11.66523600000000	0.00000000000000	0.00000000000000	-18.07400300000000	0.00000000000000	
13.99828100000000	-7.56854500000000	89.55758800000000	-17.51334200000000	0.33047000000000	0.00000000000000	0.08321600000000	-72.62160799999999	757.22243700000001	-44.62533500000000	0.08646300000000	0.00000000000000	-0.08152300000000	0.00000000000000	-12.18068700000000	0.00000000000000	0.00000000000000	-18.06228500000000	0.00000000000000	
13.99995000000000	-6.99282000000000	96.26133100000000	-17.83881800000000	0.33425300000000	0.00000000000000	0.08381500000000	-73.44862999999999	753.54647599999998	-44.05393900000000	0.08552600000000	0.00000000000000	-0.08135200000000	0.00000000000000	-12.60882400000000	0.00000000000000	0.00000000000000	-18.05088000000000	0.00000000000000	
14.00162600000000	-6.27829400000000	102.90796200000000	-18.02938100000000	0.33785900000000	0.00000000000000	0.08437900000000	-74.27519500000000	749.73399900000004	-43.46222700000000	0.08459900000000	0.00000000000000	-0.08117700000000	0.00000000000000	-12.95801100000000	0.00000000000000	0.00000000000000	-18.03954500000000	0.00000000000000	
14.00328400000000	-5.44285900000000	109.53968999999999	-18.10368700000000	0.34130600000000	0.00000000000000	0.08491200000000	-75.09948700000000	745.78163600000005	-42.85025100000000	0.08368400000000	0.00000000000000	-0.08099800000000	0.00000000000000	-13.23842200000000	0.00000000000000	0.00000000000000	-18.02801900000000	0.00000000000000	
14.00495100000000	-4.50431000000000	116.20298900000000	-18.08090300000000	0.34460600000000	0.00000000000000	0.08541800000000	-75.91960200000000	741.68605800000000	-42.21810300000000	0.08278100000000	0.00000000000000	-0.08081500000000	0.00000000000000	-13.46095300000000	0.00000000000000	0.00000000000000	-18.01602900000000	0.00000000000000	
14.00664600000000	-3.47921800000000	122.94437499999999	-17.97924700000000	0.34777300000000	0.00000000000000	0.08589800000000	-76.73355500000000	737.44398699999999	-41.56591600000000	0.08189200000000	0.00000000000000	-0.08062900000000	0.00000000000000	-13.63625900000000	0.00000000000000	0.00000000000000	-18.00328600000000	0.00000000000000	
14.00828300000000	-2.38209200000000	129.80688000000001	-17.81484800000000	0.35081500000000	0.00000000000000	0.08635700000000	-77.53927700000000	733.05221700000004	-40.89386500000000	0.08101700000000	0.00000000000000	-0.08043800000000	0.00000000000000	-13.77396900000000	0.00000000000000	0.00000000000000	-17.98948800000000	0.00000000000000	
14.00994700000000	-1.22484700000000	136.82738100000000	-17.60097000000000	0.35374300000000	0.00000000000000	0.08679500000000	-78.33462800000000	728.50762899999995	-40.20216800000000	0.08015800000000	0.00000000000000	-0.08024400000000	0.00000000000000	-13.88211800000000	0.00000000000000	0.00000000000000	-17.97432000000000	0.00000000000000	
14.01162700000000	-0.01656900000000	144.03482399999999	-17.34758800000000	0.35656200000000	0.00000000000000	0.08721400000000	-79.11739900000001	723.80720699999995	-39.49109000000000	0.07931500000000	0.00000000000000	-0.08004500000000	0.00000000000000	-13.96680500000000	0.00000000000000	0.00000000000000	-17.95745700000000	0.00000000000000	
14.01328300000000	1.23646900000000	151.44933100000000	-17.06128400000000	0.35927900000000	0.00000000000000	0.08761700000000	-79.88531500000001	718.94805799999995	-38.76094200000000	0.07849000000000	0.00000000000000	-0.07984300000000	0.00000000000000	-14.03204900000000	0.00000000000000	0.00000000000000	-17.93856200000000	0.00000000000000	
14.01494700000000	2.53057500000000	159.08208400000001	-16.74541700000000	0.36189900000000	0.00000000000000	0.08800500000000	-80.63604700000000	713.92742699999997	-38.01208400000000	0.07768200000000	0.00000000000000	-0.07963600000000	0.00000000000000	-14.07983600000000	0.00000000000000	0.00000000000000	-17.91729200000000	0.00000000000000	
14.01661200000000	3.86425600000000	166.93585899999999	-16.40050800000000	0.36442500000000	0.00000000000000	0.08837800000000	-81.36721400000000	708.74271899999997	-37.24492400000000	0.07689400000000	0.00000000000000	-0.07942600000000	0.00000000000000	-14.11031200000000	0.00000000000000	0.00000000000000	-17.89329100000000	0.00000000000000	
14.01828000000000	5.23773300000000	175.00605200000001	-16.02476100000000	0.36686200000000	0.00000000000000	0.08873900000000	-82.07639000000000	703.39151700000002	-36.45991900000000	0.07612500000000	0.00000000000000	-0.07921100000000	0.00000000000000	-14.12208200000000	0.00000000000000	0.00000000000000	-17.86620100000000	0.00000000000000	
